<svg width="45" height="45" viewBox="0 0 45 45" fill="none" xmlns="http://www.w3.org/2000/svg">
<rect width="45" height="45" rx="12" fill="white"/>
<path d="M18.1105 30.5C17.1288 30.5 16.333 29.6833 16.333 28.675V21.34C16.333 20.7858 16.5788 20.2608 16.9997 19.915L21.8888 15.9C22.2012 15.6413 22.5941 15.4998 22.9997 15.4998C23.4053 15.4998 23.7981 15.6413 24.1105 15.9L28.9988 19.915C29.4205 20.2608 29.6663 20.7858 29.6663 21.34V28.675C29.6663 29.6833 28.8705 30.5 27.8888 30.5H18.1105Z" stroke="#E72D2E" stroke-width="1.25" stroke-linecap="round" stroke-linejoin="round"/>
<path d="M20.916 30.5V25.9167C20.916 25.4746 21.0916 25.0507 21.4042 24.7382C21.7167 24.4256 22.1407 24.25 22.5827 24.25H23.416C23.858 24.25 24.282 24.4256 24.5945 24.7382C24.9071 25.0507 25.0827 25.4746 25.0827 25.9167V30.5" stroke="#E72D2E" stroke-width="1.25" stroke-linecap="round" stroke-linejoin="round"/>
</svg>
