<svg width="45" height="45" viewBox="0 0 45 45" fill="none" xmlns="http://www.w3.org/2000/svg">
<rect width="45" height="45" rx="12" fill="white"/>
<path d="M23 25.5C24.3807 25.5 25.5 24.3807 25.5 23C25.5 21.6193 24.3807 20.5 23 20.5C21.6193 20.5 20.5 21.6193 20.5 23C20.5 24.3807 21.6193 25.5 23 25.5Z" stroke="#E72D2E" stroke-width="1.25"/>
<path d="M24.4712 14.7934C24.1654 14.6667 23.777 14.6667 23.0004 14.6667C22.2237 14.6667 21.8354 14.6667 21.5295 14.7934C21.3272 14.8772 21.1433 15 20.9885 15.1549C20.8336 15.3097 20.7108 15.4936 20.627 15.6959C20.5504 15.8817 20.5195 16.0992 20.5079 16.4151C20.5024 16.6434 20.4392 16.8665 20.3241 17.0637C20.2089 17.2609 20.0457 17.4257 19.8495 17.5426C19.6502 17.6541 19.4259 17.7131 19.1975 17.7143C18.9691 17.7155 18.7442 17.6587 18.5437 17.5492C18.2637 17.4009 18.0612 17.3192 17.8604 17.2926C17.4223 17.235 16.9793 17.3537 16.6287 17.6226C16.367 17.8251 16.172 18.1609 15.7837 18.8334C15.3954 19.5059 15.2004 19.8417 15.1579 20.1709C15.1292 20.388 15.1436 20.6085 15.2003 20.82C15.2569 21.0315 15.3546 21.2297 15.4879 21.4034C15.6112 21.5634 15.7837 21.6976 16.0512 21.8659C16.4454 22.1134 16.6987 22.5351 16.6987 23.0001C16.6987 23.4651 16.4454 23.8867 16.0512 24.1334C15.7837 24.3026 15.6104 24.4367 15.4879 24.5967C15.3546 24.7704 15.2569 24.9687 15.2003 25.1802C15.1436 25.3916 15.1292 25.6122 15.1579 25.8292C15.2012 26.1576 15.3954 26.4942 15.7829 27.1667C16.172 27.8392 16.3662 28.1751 16.6287 28.3776C16.8024 28.5108 17.0007 28.6086 17.2121 28.6652C17.4236 28.7218 17.6442 28.7362 17.8612 28.7076C18.0612 28.6809 18.2637 28.5992 18.5437 28.4509C18.7442 28.3415 18.9691 28.2847 19.1975 28.2859C19.4259 28.287 19.6502 28.3461 19.8495 28.4576C20.252 28.6909 20.4912 29.1201 20.5079 29.5851C20.5195 29.9017 20.5495 30.1184 20.627 30.3042C20.7108 30.5066 20.8336 30.6905 20.9885 30.8453C21.1433 31.0002 21.3272 31.123 21.5295 31.2067C21.8354 31.3334 22.2237 31.3334 23.0004 31.3334C23.777 31.3334 24.1654 31.3334 24.4712 31.2067C24.6736 31.123 24.8574 31.0002 25.0123 30.8453C25.1671 30.6905 25.2899 30.5066 25.3737 30.3042C25.4504 30.1184 25.4812 29.9017 25.4929 29.5851C25.5095 29.1201 25.7487 28.6901 26.1512 28.4576C26.3505 28.3461 26.5749 28.287 26.8033 28.2859C27.0316 28.2847 27.2566 28.3415 27.457 28.4509C27.737 28.5992 27.9395 28.6809 28.1395 28.7076C28.3566 28.7362 28.5771 28.7218 28.7886 28.6652C29.0001 28.6086 29.1983 28.5108 29.372 28.3776C29.6345 28.1759 29.8287 27.8392 30.217 27.1667C30.6054 26.4942 30.8004 26.1584 30.8429 25.8292C30.8715 25.6122 30.8571 25.3916 30.8005 25.1802C30.7439 24.9687 30.6461 24.7704 30.5129 24.5967C30.3895 24.4367 30.217 24.3026 29.9495 24.1342C29.7545 24.0154 29.5928 23.849 29.4795 23.6507C29.3663 23.4523 29.3052 23.2285 29.302 23.0001C29.302 22.5351 29.5554 22.1134 29.9495 21.8667C30.217 21.6976 30.3904 21.5634 30.5129 21.4034C30.6461 21.2297 30.7439 21.0315 30.8005 20.82C30.8571 20.6085 30.8715 20.388 30.8429 20.1709C30.7995 19.8426 30.6054 19.5059 30.2179 18.8334C29.8287 18.1609 29.6345 17.8251 29.372 17.6226C29.1983 17.4893 29.0001 17.3916 28.7886 17.335C28.5771 17.2783 28.3566 17.2639 28.1395 17.2926C27.9395 17.3192 27.737 17.4009 27.4562 17.5492C27.2559 17.6585 27.0311 17.7152 26.8028 17.7141C26.5746 17.7129 26.3504 17.6539 26.1512 17.5426C25.9551 17.4257 25.7918 17.2609 25.6767 17.0637C25.5615 16.8665 25.4983 16.6434 25.4929 16.4151C25.4812 16.0984 25.4512 15.8817 25.3737 15.6959C25.2899 15.4936 25.1671 15.3097 25.0123 15.1549C24.8574 15 24.6736 14.8772 24.4712 14.7934Z" stroke="#E72D2E" stroke-width="1.25"/>
</svg>
